<svg xmlns="http://www.w3.org/2000/svg" xmlns:xlink="http://www.w3.org/1999/xlink" version="1.1" class="marks" width="656" height="439" viewBox="0 0 656 439"><rect width="656" height="439" fill="white"/><g fill="none" stroke-miterlimit="10" transform="translate(49,28)"><g class="mark-group role-frame root" role="graphics-object" aria-roledescription="group mark container"><g transform="translate(0,0)"><path class="background" aria-hidden="true" d="M0.5,0.5h600v370h-600Z" stroke="#ddd"/><g><g class="mark-group role-axis" aria-hidden="true"><g transform="translate(0.5,370.5)"><path class="background" aria-hidden="true" d="M0,0h0v0h0Z" pointer-events="none"/><g><g class="mark-rule role-axis-grid" pointer-events="none"><line transform="translate(0,-370)" x2="0" y2="370" stroke="#ddd" stroke-width="1" opacity="1"/><line transform="translate(46,-370)" x2="0" y2="370" stroke="#ddd" stroke-width="1" opacity="1"/><line transform="translate(92,-370)" x2="0" y2="370" stroke="#ddd" stroke-width="1" opacity="1"/><line transform="translate(138,-370)" x2="0" y2="370" stroke="#ddd" stroke-width="1" opacity="1"/><line transform="translate(185,-370)" x2="0" y2="370" stroke="#ddd" stroke-width="1" opacity="1"/><line transform="translate(231,-370)" x2="0" y2="370" stroke="#ddd" stroke-width="1" opacity="1"/><line transform="translate(277,-370)" x2="0" y2="370" stroke="#ddd" stroke-width="1" opacity="1"/><line transform="translate(323,-370)" x2="0" y2="370" stroke="#ddd" stroke-width="1" opacity="1"/><line transform="translate(369,-370)" x2="0" y2="370" stroke="#ddd" stroke-width="1" opacity="1"/><line transform="translate(415,-370)" x2="0" y2="370" stroke="#ddd" stroke-width="1" opacity="1"/><line transform="translate(462,-370)" x2="0" y2="370" stroke="#ddd" stroke-width="1" opacity="1"/><line transform="translate(508,-370)" x2="0" y2="370" stroke="#ddd" stroke-width="1" opacity="1"/><line transform="translate(554,-370)" x2="0" y2="370" stroke="#ddd" stroke-width="1" opacity="1"/><line transform="translate(600,-370)" x2="0" y2="370" stroke="#ddd" stroke-width="1" opacity="1"/></g></g><path class="foreground" aria-hidden="true" d="" pointer-events="none" display="none"/></g></g><g class="mark-group role-axis" aria-hidden="true"><g transform="translate(0.5,0.5)"><path class="background" aria-hidden="true" d="M0,0h0v0h0Z" pointer-events="none"/><g><g class="mark-rule role-axis-grid" pointer-events="none"><line transform="translate(0,370)" x2="600" y2="0" stroke="#ddd" stroke-width="1" opacity="1"/><line transform="translate(0,329)" x2="600" y2="0" stroke="#ddd" stroke-width="1" opacity="1"/><line transform="translate(0,288)" x2="600" y2="0" stroke="#ddd" stroke-width="1" opacity="1"/><line transform="translate(0,247)" x2="600" y2="0" stroke="#ddd" stroke-width="1" opacity="1"/><line transform="translate(0,206)" x2="600" y2="0" stroke="#ddd" stroke-width="1" opacity="1"/><line transform="translate(0,164)" x2="600" y2="0" stroke="#ddd" stroke-width="1" opacity="1"/><line transform="translate(0,123)" x2="600" y2="0" stroke="#ddd" stroke-width="1" opacity="1"/><line transform="translate(0,82)" x2="600" y2="0" stroke="#ddd" stroke-width="1" opacity="1"/><line transform="translate(0,41)" x2="600" y2="0" stroke="#ddd" stroke-width="1" opacity="1"/><line transform="translate(0,0)" x2="600" y2="0" stroke="#ddd" stroke-width="1" opacity="1"/></g></g><path class="foreground" aria-hidden="true" d="" pointer-events="none" display="none"/></g></g><g class="mark-group role-axis" role="graphics-symbol" aria-roledescription="axis" aria-label="X-axis titled 'Genomic Position' for a linear scale with values from 21,628,800 to 21,630,100"><g transform="translate(0.5,370.5)"><path class="background" aria-hidden="true" d="M0,0h0v0h0Z" pointer-events="none"/><g><g class="mark-rule role-axis-tick" pointer-events="none"><line transform="translate(0,0)" x2="0" y2="5" stroke="#888" stroke-width="1" opacity="1"/><line transform="translate(46,0)" x2="0" y2="5" stroke="#888" stroke-width="1" opacity="1"/><line transform="translate(92,0)" x2="0" y2="5" stroke="#888" stroke-width="1" opacity="1"/><line transform="translate(138,0)" x2="0" y2="5" stroke="#888" stroke-width="1" opacity="1"/><line transform="translate(185,0)" x2="0" y2="5" stroke="#888" stroke-width="1" opacity="1"/><line transform="translate(231,0)" x2="0" y2="5" stroke="#888" stroke-width="1" opacity="1"/><line transform="translate(277,0)" x2="0" y2="5" stroke="#888" stroke-width="1" opacity="1"/><line transform="translate(323,0)" x2="0" y2="5" stroke="#888" stroke-width="1" opacity="1"/><line transform="translate(369,0)" x2="0" y2="5" stroke="#888" stroke-width="1" opacity="1"/><line transform="translate(415,0)" x2="0" y2="5" stroke="#888" stroke-width="1" opacity="1"/><line transform="translate(462,0)" x2="0" y2="5" stroke="#888" stroke-width="1" opacity="1"/><line transform="translate(508,0)" x2="0" y2="5" stroke="#888" stroke-width="1" opacity="1"/><line transform="translate(554,0)" x2="0" y2="5" stroke="#888" stroke-width="1" opacity="1"/><line transform="translate(600,0)" x2="0" y2="5" stroke="#888" stroke-width="1" opacity="1"/></g><g class="mark-text role-axis-label" pointer-events="none"><text text-anchor="start" transform="translate(0,16)" font-family="sans-serif" font-size="12px" fill="#000" opacity="1">21,628,800</text><text text-anchor="middle" transform="translate(46.15384615384615,16)" font-family="sans-serif" font-size="12px" fill="#000" opacity="0">21,628,900</text><text text-anchor="middle" transform="translate(92.3076923076923,16)" font-family="sans-serif" font-size="12px" fill="#000" opacity="0">21,629,000</text><text text-anchor="middle" transform="translate(138.46153846153848,16)" font-family="sans-serif" font-size="12px" fill="#000" opacity="0">21,629,100</text><text text-anchor="middle" transform="translate(184.6153846153846,16)" font-family="sans-serif" font-size="12px" fill="#000" opacity="1">21,629,200</text><text text-anchor="middle" transform="translate(230.76923076923077,16)" font-family="sans-serif" font-size="12px" fill="#000" opacity="0">21,629,300</text><text text-anchor="middle" transform="translate(276.92307692307696,16)" font-family="sans-serif" font-size="12px" fill="#000" opacity="0">21,629,400</text><text text-anchor="middle" transform="translate(323.07692307692304,16)" font-family="sans-serif" font-size="12px" fill="#000" opacity="0">21,629,500</text><text text-anchor="middle" transform="translate(369.2307692307692,16)" font-family="sans-serif" font-size="12px" fill="#000" opacity="1">21,629,600</text><text text-anchor="middle" transform="translate(415.38461538461536,16)" font-family="sans-serif" font-size="12px" fill="#000" opacity="0">21,629,700</text><text text-anchor="middle" transform="translate(461.53846153846155,16)" font-family="sans-serif" font-size="12px" fill="#000" opacity="0">21,629,800</text><text text-anchor="middle" transform="translate(507.6923076923077,16)" font-family="sans-serif" font-size="12px" fill="#000" opacity="0">21,629,900</text><text text-anchor="middle" transform="translate(553.8461538461539,16)" font-family="sans-serif" font-size="12px" fill="#000" opacity="1">21,630,000</text><text text-anchor="end" transform="translate(600,16)" font-family="sans-serif" font-size="12px" fill="#000" opacity="0">21,630,100</text></g><g class="mark-rule role-axis-domain" pointer-events="none"><line transform="translate(0,0)" x2="600" y2="0" stroke="#888" stroke-width="1" opacity="1"/></g><g class="mark-text role-axis-title" pointer-events="none"><text text-anchor="middle" transform="translate(300,33)" font-family="sans-serif" font-size="14px" font-weight="bold" fill="#000" opacity="1">Genomic Position</text></g></g><path class="foreground" aria-hidden="true" d="" pointer-events="none" display="none"/></g></g><g class="mark-group role-axis" role="graphics-symbol" aria-roledescription="axis" aria-label="Y-axis titled 'Count' for a linear scale with values from 0 to 90"><g transform="translate(0.5,0.5)"><path class="background" aria-hidden="true" d="M0,0h0v0h0Z" pointer-events="none"/><g><g class="mark-rule role-axis-tick" pointer-events="none"><line transform="translate(0,370)" x2="-5" y2="0" stroke="#888" stroke-width="1" opacity="1"/><line transform="translate(0,329)" x2="-5" y2="0" stroke="#888" stroke-width="1" opacity="1"/><line transform="translate(0,288)" x2="-5" y2="0" stroke="#888" stroke-width="1" opacity="1"/><line transform="translate(0,247)" x2="-5" y2="0" stroke="#888" stroke-width="1" opacity="1"/><line transform="translate(0,206)" x2="-5" y2="0" stroke="#888" stroke-width="1" opacity="1"/><line transform="translate(0,164)" x2="-5" y2="0" stroke="#888" stroke-width="1" opacity="1"/><line transform="translate(0,123)" x2="-5" y2="0" stroke="#888" stroke-width="1" opacity="1"/><line transform="translate(0,82)" x2="-5" y2="0" stroke="#888" stroke-width="1" opacity="1"/><line transform="translate(0,41)" x2="-5" y2="0" stroke="#888" stroke-width="1" opacity="1"/><line transform="translate(0,0)" x2="-5" y2="0" stroke="#888" stroke-width="1" opacity="1"/></g><g class="mark-text role-axis-label" pointer-events="none"><text text-anchor="end" transform="translate(-7,374)" font-family="sans-serif" font-size="12px" fill="#000" opacity="1">0</text><text text-anchor="end" transform="translate(-7,332.88888888888886)" font-family="sans-serif" font-size="12px" fill="#000" opacity="1">10</text><text text-anchor="end" transform="translate(-7,291.77777777777777)" font-family="sans-serif" font-size="12px" fill="#000" opacity="1">20</text><text text-anchor="end" transform="translate(-7,250.66666666666669)" font-family="sans-serif" font-size="12px" fill="#000" opacity="1">30</text><text text-anchor="end" transform="translate(-7,209.55555555555557)" font-family="sans-serif" font-size="12px" fill="#000" opacity="1">40</text><text text-anchor="end" transform="translate(-7,168.44444444444443)" font-family="sans-serif" font-size="12px" fill="#000" opacity="1">50</text><text text-anchor="end" transform="translate(-7,127.33333333333334)" font-family="sans-serif" font-size="12px" fill="#000" opacity="1">60</text><text text-anchor="end" transform="translate(-7,86.22222222222221)" font-family="sans-serif" font-size="12px" fill="#000" opacity="1">70</text><text text-anchor="end" transform="translate(-7,45.11111111111113)" font-family="sans-serif" font-size="12px" fill="#000" opacity="1">80</text><text text-anchor="end" transform="translate(-7,4)" font-family="sans-serif" font-size="12px" fill="#000" opacity="1">90</text></g><g class="mark-rule role-axis-domain" pointer-events="none"><line transform="translate(0,370)" x2="0" y2="-370" stroke="#888" stroke-width="1" opacity="1"/></g><g class="mark-text role-axis-title" pointer-events="none"><text text-anchor="middle" transform="translate(-30,185) rotate(-90) translate(0,-3)" font-family="sans-serif" font-size="14px" font-weight="bold" fill="#000" opacity="1">Count</text></g></g><path class="foreground" aria-hidden="true" d="" pointer-events="none" display="none"/></g></g><g class="mark-line role-mark marks" role="graphics-object" aria-roledescription="line mark container"><path aria-label="Genomic Position: 21628800; Count: 1" role="graphics-symbol" aria-roledescription="line mark" d="M0,365.889L0.462,365.889L0.923,365.889L1.385,365.889L1.846,365.889L2.308,365.889L2.769,365.889L3.231,365.889L3.692,365.889L4.154,365.889L4.615,365.889L5.077,365.889L5.538,365.889L6,365.889L6.462,365.889L6.923,365.889L7.385,365.889L7.846,365.889L8.308,365.889L8.769,365.889L9.231,365.889L9.692,365.889L10.154,365.889L10.615,365.889L11.077,365.889L11.538,365.889L12,365.889L12.462,365.889L12.923,365.889L13.385,365.889L13.846,365.889L14.308,365.889L14.769,365.889L15.231,365.889L15.692,365.889L16.154,365.889L16.615,365.889L17.077,365.889L17.538,365.889L18,365.889L18.462,365.889L18.923,365.889L19.385,365.889L19.846,365.889L20.308,365.889L20.769,365.889L21.231,365.889L21.692,365.889L22.154,365.889L22.615,365.889L23.077,365.889L23.538,365.889L24,365.889L24.462,365.889L24.923,365.889L25.385,365.889L25.846,365.889L26.308,365.889L26.769,365.889L27.231,365.889L27.692,365.889L28.154,365.889L28.615,365.889L29.077,365.889L29.538,365.889L30,365.889L30.462,365.889L30.923,365.889L31.385,365.889L31.846,370L32.308,365.889L32.769,365.889L33.231,365.889L33.692,365.889L34.154,365.889L34.615,365.889L35.077,365.889L35.538,365.889L36,365.889L36.462,365.889L36.923,365.889L37.385,365.889L37.846,365.889L38.308,365.889L38.769,365.889L39.231,365.889L39.692,365.889L40.154,365.889L40.615,365.889L41.077,365.889L41.538,365.889L42,365.889L42.462,365.889L42.923,365.889L43.385,365.889L43.846,365.889L44.308,365.889L44.769,365.889L45.231,365.889L45.692,365.889L46.154,365.889L46.615,365.889L47.077,365.889L47.538,365.889L48,365.889L48.462,365.889L48.923,365.889L49.385,365.889L49.846,365.889L50.308,365.889L50.769,365.889L51.231,365.889L51.692,365.889L52.154,365.889L52.615,365.889L53.077,365.889L53.538,365.889L54,365.889L54.462,365.889L54.923,365.889L55.385,365.889L55.846,365.889L56.308,365.889L56.769,365.889L57.231,365.889L57.692,365.889L58.154,365.889L58.615,365.889L59.077,365.889L59.538,365.889L60,365.889L60.462,365.889L60.923,365.889L61.385,365.889L61.846,365.889L62.308,365.889L62.769,365.889L63.231,365.889L63.692,365.889L64.154,365.889L64.615,365.889L65.077,365.889L65.538,365.889L66,365.889L66.462,365.889L66.923,365.889L67.385,365.889L67.846,365.889L68.308,365.889L68.769,365.889L69.231,365.889L69.692,365.889L70.154,365.889L70.615,365.889L71.077,365.889L71.538,365.889L72,365.889L72.462,365.889L72.923,365.889L73.385,365.889L73.846,365.889L74.308,365.889L74.769,365.889L75.231,365.889L75.692,365.889L76.154,365.889L76.615,365.889L77.077,365.889L77.538,365.889L78,365.889L78.462,365.889L78.923,365.889L79.385,365.889L79.846,365.889L80.308,365.889L80.769,365.889L81.231,365.889L81.692,365.889L82.154,365.889L82.615,365.889L83.077,365.889L83.538,365.889L84,365.889L84.462,365.889L84.923,365.889L85.385,365.889L85.846,365.889L86.308,365.889L86.769,365.889L87.231,365.889L87.692,365.889L88.154,365.889L88.615,365.889L89.077,365.889L89.538,365.889L90,365.889L90.462,365.889L90.923,365.889L91.385,365.889L91.846,365.889L92.308,365.889L92.769,365.889L93.231,365.889L93.692,365.889L94.154,365.889L94.615,365.889L95.077,365.889L95.538,365.889L96,365.889L96.462,119.222L96.923,119.222L97.385,115.111L97.846,119.222L98.308,115.111L98.769,115.111L99.231,119.222L99.692,115.111L100.154,139.778L100.615,143.889L101.077,119.222L101.538,115.111L102,119.222L102.462,160.333L102.923,119.222L103.385,127.444L103.846,131.556L104.308,127.444L104.769,123.333L105.231,131.556L105.692,172.667L106.154,139.778L106.615,123.333L107.077,135.667L107.538,143.889L108,119.222L108.462,119.222L108.923,123.333L109.385,127.444L109.846,127.444L110.308,123.333L110.769,119.222L111.231,115.111L111.692,115.111L112.154,168.556L112.615,152.111L113.077,119.222L113.538,119.222L114,115.111L114.462,115.111L114.923,115.111L115.385,119.222L115.846,115.111L116.308,123.333L116.769,123.333L117.231,115.111L117.692,119.222L118.154,127.444L118.615,139.778L119.077,135.667L119.538,131.556L120,135.667L120.462,115.111L120.923,119.222L121.385,115.111L121.846,115.111L122.308,119.222L122.769,119.222L123.231,119.222L123.692,115.111L124.154,115.111L124.615,115.111L125.077,123.333L125.538,119.222L126,123.333L126.462,123.333L126.923,115.111L127.385,131.556L127.846,139.778L128.308,123.333L128.769,119.222L129.231,115.111L129.692,127.444L130.154,127.444L130.615,180.889L131.077,131.556L131.538,123.333L132,119.222L132.462,119.222L132.923,127.444L133.385,115.111L133.846,123.333L134.308,139.778L134.769,119.222L135.231,115.111L135.692,119.222L136.154,123.333L136.615,123.333L137.077,143.889L137.538,139.778L138,143.889L138.462,135.667L138.923,123.333L139.385,123.333L139.846,127.444L140.308,119.222L140.769,115.111L141.231,119.222L141.692,119.222L142.154,131.556L142.615,119.222L143.077,148L143.538,152.111L144,115.111L144.462,115.111L144.923,115.111L145.385,119.222L145.846,123.333L146.308,115.111L146.769,115.111L147.231,119.222L147.692,135.667L148.154,123.333L148.615,115.111L149.077,115.111L149.538,123.333L150,119.222L150.462,123.333L150.923,115.111L151.385,119.222L151.846,127.444L152.308,123.333L152.769,123.333L153.231,115.111L153.692,115.111L154.154,115.111L154.615,143.889L155.077,156.222L155.538,164.444L156,127.444L156.462,119.222L156.923,127.444L157.385,131.556L157.846,115.111L158.308,119.222L158.769,123.333L159.231,131.556L159.692,119.222L160.154,119.222L160.615,115.111L161.077,115.111L161.538,119.222L162,115.111L162.462,123.333L162.923,119.222L163.385,119.222L163.846,115.111L164.308,123.333L164.769,115.111L165.231,115.111L165.692,119.222L166.154,115.111L166.615,115.111L167.077,119.222L167.538,131.556L168,115.111L168.462,123.333L168.923,115.111L169.385,115.111L169.846,115.111L170.308,115.111L170.769,115.111L171.231,131.556L171.692,119.222L172.154,123.333L172.615,119.222L173.077,119.222L173.538,115.111L174,119.222L174.462,115.111L174.923,115.111L175.385,127.444L175.846,123.333L176.308,115.111L176.769,115.111L177.231,115.111L177.692,119.222L178.154,115.111L178.615,333L179.077,333L179.538,333L180,337.111L180.462,341.222L180.923,341.222L181.385,337.111L181.846,337.111L182.308,333L182.769,337.111L183.231,341.222L183.692,333L184.154,333L184.615,333L185.077,333L185.538,333L186,337.111L186.462,333L186.923,341.222L187.385,349.444L187.846,341.222L188.308,337.111L188.769,333L189.231,337.111L189.692,337.111L190.154,333L190.615,333L191.077,341.222L191.538,341.222L192,337.111L192.462,333L192.923,333L193.385,333L193.846,337.111L194.308,345.333L194.769,341.222L195.231,341.222L195.692,337.111L196.154,337.111L196.615,337.111L197.077,337.111L197.538,337.111L198,337.111L198.462,337.111L198.923,337.111L199.385,337.111L199.846,337.111L200.308,337.111L200.769,337.111L201.231,337.111L201.692,337.111L202.154,341.222L202.615,341.222L203.077,337.111L203.538,337.111L204,337.111L204.462,341.222L204.923,341.222L205.385,341.222L205.846,341.222L206.308,341.222L206.769,341.222L207.231,341.222L207.692,341.222L208.154,345.333L208.615,341.222L209.077,337.111L209.538,337.111L210,337.111L210.462,337.111L210.923,341.222L211.385,337.111L211.846,341.222L212.308,341.222L212.769,337.111L213.231,337.111L213.692,337.111L214.154,337.111L214.615,337.111L215.077,337.111L215.538,341.222L216,341.222L216.462,337.111L216.923,337.111L217.385,337.111L217.846,337.111L218.308,337.111L218.769,337.111L219.231,341.222L219.692,341.222L220.154,349.444L220.615,345.333L221.077,337.111L221.538,337.111L222,341.222L222.462,341.222L222.923,345.333L223.385,341.222L223.846,337.111L224.308,337.111L224.769,337.111L225.231,337.111L225.692,337.111L226.154,337.111L226.615,337.111L227.077,337.111L227.538,337.111L228,337.111L228.462,337.111L228.923,337.111L229.385,337.111L229.846,337.111L230.308,337.111L230.769,337.111L231.231,337.111L231.692,337.111L232.154,337.111L232.615,337.111L233.077,337.111L233.538,337.111L234,32.889L234.462,41.111L234.923,37L235.385,28.778L235.846,28.778L236.308,32.889L236.769,28.778L237.231,32.889L237.692,32.889L238.154,28.778L238.615,37L239.077,28.778L239.538,24.667L240,37L240.462,45.222L240.923,37L241.385,45.222L241.846,37L242.308,28.778L242.769,28.778L243.231,32.889L243.692,37L244.154,28.778L244.615,28.778L245.077,28.778L245.538,45.222L246,28.778L246.462,24.667L246.923,24.667L247.385,24.667L247.846,28.778L248.308,37L248.769,49.333L249.231,32.889L249.692,45.222L250.154,49.333L250.615,41.111L251.077,45.222L251.538,61.667L252,57.556L252.462,78.111L252.923,41.111L253.385,32.889L253.846,37L254.308,41.111L254.769,57.556L255.231,37L255.692,32.889L256.154,41.111L256.615,37L257.077,69.889L257.538,45.222L258,45.222L258.462,41.111L258.923,32.889L259.385,37L259.846,37L260.308,32.889L260.769,32.889L261.231,45.222L261.692,57.556L262.154,41.111L262.615,41.111L263.077,57.556L263.538,37L264,49.333L264.462,37L264.923,32.889L265.385,32.889L265.846,28.778L266.308,28.778L266.769,37L267.231,82.222L267.692,69.889L268.154,41.111L268.615,37L269.077,32.889L269.538,28.778L270,37L270.462,28.778L270.923,28.778L271.385,41.111L271.846,28.778L272.308,37L272.769,28.778L273.231,32.889L273.692,37L274.154,37L274.615,41.111L275.077,49.333L275.538,49.333L276,37L276.462,41.111L276.923,90.444L277.385,41.111L277.846,41.111L278.308,49.333L278.769,37L279.231,37L279.692,41.111L280.154,287.778L280.615,291.889L281.077,304.222L281.538,296L282,296L282.462,296L282.923,287.778L283.385,287.778L283.846,291.889L284.308,287.778L284.769,296L285.231,287.778L285.692,287.778L286.154,304.222L286.615,296L287.077,287.778L287.538,296L288,287.778L288.462,291.889L288.923,291.889L289.385,291.889L289.846,287.778L290.308,287.778L290.769,291.889L291.231,296L291.692,291.889L292.154,291.889L292.615,291.889L293.077,291.889L293.538,287.778L294,291.889L294.462,287.778L294.923,287.778L295.385,287.778L295.846,287.778L296.308,287.778L296.769,291.889L297.231,287.778L297.692,287.778L298.154,291.889L298.615,296L299.077,296L299.538,287.778L300,283.667L300.462,283.667L300.923,283.667L301.385,287.778L301.846,287.778L302.308,291.889L302.769,283.667L303.231,283.667L303.692,283.667L304.154,283.667L304.615,287.778L305.077,283.667L305.538,283.667L306,283.667L306.462,283.667L306.923,283.667L307.385,283.667L307.846,287.778L308.308,287.778L308.769,287.778L309.231,287.778L309.692,287.778L310.154,287.778L310.615,287.778L311.077,287.778L311.538,291.889L312,291.889L312.462,287.778L312.923,287.778L313.385,287.778L313.846,287.778L314.308,287.778L314.769,287.778L315.231,287.778L315.692,291.889L316.154,291.889L316.615,287.778L317.077,291.889L317.538,287.778L318,287.778L318.462,287.778L318.923,291.889L319.385,287.778L319.846,287.778L320.308,287.778L320.769,287.778L321.231,287.778L321.692,287.778L322.154,287.778L322.615,287.778L323.077,287.778L323.538,287.778L324,296L324.462,291.889L324.923,291.889L325.385,287.778L325.846,291.889L326.308,287.778L326.769,296L327.231,287.778L327.692,287.778L328.154,291.889L328.615,287.778L329.077,287.778L329.538,291.889L330,291.889L330.462,291.889L330.923,296L331.385,287.778L331.846,287.778L332.308,287.778L332.769,296L333.231,287.778L333.692,300.111L334.154,291.889L334.615,291.889L335.077,287.778L335.538,287.778L336,287.778L336.462,287.778L336.923,287.778L337.385,291.889L337.846,287.778L338.308,291.889L338.769,296L339.231,291.889L339.692,287.778L340.154,291.889L340.615,296L341.077,296L341.538,287.778L342,291.889L342.462,238.444L342.923,242.556L343.385,246.667L343.846,250.778L344.308,246.667L344.769,267.222L345.231,250.778L345.692,238.444L346.154,238.444L346.615,246.667L347.077,238.444L347.538,246.667L348,238.444L348.462,242.556L348.923,263.111L349.385,242.556L349.846,246.667L350.308,246.667L350.769,238.444L351.231,238.444L351.692,238.444L352.154,238.444L352.615,238.444L353.077,238.444L353.538,238.444L354,238.444L354.462,242.556L354.923,242.556L355.385,242.556L355.846,246.667L356.308,238.444L356.769,246.667L357.231,238.444L357.692,238.444L358.154,238.444L358.615,238.444L359.077,238.444L359.538,238.444L360,238.444L360.462,242.556L360.923,254.889L361.385,254.889L361.846,254.889L362.308,254.889L362.769,242.556L363.231,250.778L363.692,246.667L364.154,250.778L364.615,246.667L365.077,246.667L365.538,246.667L366,242.556L366.462,250.778L366.923,250.778L367.385,246.667L367.846,246.667L368.308,246.667L368.769,242.556L369.231,246.667L369.692,94.556L370.154,98.667L370.615,98.667L371.077,111L371.538,94.556L372,90.444L372.462,94.556L372.923,135.667L373.385,98.667L373.846,102.778L374.308,102.778L374.769,98.667L375.231,90.444L375.692,94.556L376.154,90.444L376.615,90.444L377.077,90.444L377.538,94.556L378,90.444L378.462,119.222L378.923,94.556L379.385,106.889L379.846,102.778L380.308,98.667L380.769,102.778L381.231,98.667L381.692,106.889L382.154,106.889L382.615,106.889L383.077,98.667L383.538,98.667L384,98.667L384.462,90.444L384.923,94.556L385.385,94.556L385.846,102.778L386.308,90.444L386.769,90.444L387.231,119.222L387.692,94.556L388.154,94.556L388.615,90.444L389.077,94.556L389.538,115.111L390,98.667L390.462,90.444L390.923,90.444L391.385,94.556L391.846,90.444L392.308,127.444L392.769,106.889L393.231,90.444L393.692,90.444L394.154,94.556L394.615,111L395.077,102.778L395.538,94.556L396,90.444L396.462,90.444L396.923,90.444L397.385,106.889L397.846,94.556L398.308,90.444L398.769,90.444L399.231,94.556L399.692,94.556L400.154,94.556L400.615,94.556L401.077,111L401.538,94.556L402,115.111L402.462,102.778L402.923,90.444L403.385,94.556L403.846,90.444L404.308,90.444L404.769,102.778L405.231,102.778L405.692,94.556L406.154,90.444L406.615,90.444L407.077,90.444L407.538,94.556L408,94.556L408.462,94.556L408.923,90.444L409.385,98.667L409.846,94.556L410.308,102.778L410.769,102.778L411.231,90.444L411.692,102.778L412.154,102.778L412.615,106.889L413.077,94.556L413.538,102.778L414,90.444L414.462,90.444L414.923,111L415.385,94.556L415.846,90.444L416.308,102.778L416.769,90.444L417.231,94.556L417.692,90.444L418.154,94.556L418.615,106.889L419.077,94.556L419.538,102.778L420,123.333L420.462,106.889L420.923,115.111L421.385,86.333L421.846,86.333L422.308,86.333L422.769,94.556L423.231,94.556L423.692,82.222L424.154,82.222L424.615,74L425.077,74L425.538,86.333L426,82.222L426.462,86.333L426.923,78.111L427.385,82.222L427.846,78.111L428.308,82.222L428.769,78.111L429.231,78.111L429.692,82.222L430.154,78.111L430.615,78.111L431.077,82.222L431.538,82.222L432,106.889L432.462,102.778L432.923,86.333L433.385,74L433.846,74L434.308,78.111L434.769,74L435.231,78.111L435.692,74L436.154,74L436.615,82.222L437.077,82.222L437.538,94.556L438,78.111L438.462,78.111L438.923,82.222L439.385,82.222L439.846,74L440.308,74L440.769,78.111L441.231,82.222L441.692,82.222L442.154,82.222L442.615,82.222L443.077,90.444L443.538,308.333L444,312.444L444.462,312.444L444.923,312.444L445.385,316.556L445.846,312.444L446.308,312.444L446.769,312.444L447.231,308.333L447.692,308.333L448.154,312.444L448.615,308.333L449.077,308.333L449.538,308.333L450,308.333L450.462,308.333L450.923,308.333L451.385,308.333L451.846,312.444L452.308,312.444L452.769,312.444L453.231,312.444L453.692,312.444L454.154,308.333L454.615,308.333L455.077,312.444L455.538,316.556L456,316.556L456.462,316.556L456.923,312.444L457.385,312.444L457.846,308.333L458.308,308.333L458.769,308.333L459.231,308.333L459.692,308.333L460.154,308.333L460.615,320.667L461.077,312.444L461.538,320.667L462,312.444L462.462,316.556L462.923,320.667L463.385,316.556L463.846,312.444L464.308,312.444L464.769,308.333L465.231,308.333L465.692,308.333L466.154,308.333L466.615,312.444L467.077,320.667L467.538,324.778L468,316.556L468.462,308.333L468.923,308.333L469.385,308.333L469.846,308.333L470.308,308.333L470.769,312.444L471.231,312.444L471.692,312.444L472.154,308.333L472.615,308.333L473.077,308.333L473.538,312.444L474,308.333L474.462,312.444L474.923,312.444L475.385,316.556L475.846,316.556L476.308,324.778L476.769,316.556L477.231,316.556L477.692,308.333L478.154,308.333L478.615,312.444L479.077,328.889L479.538,312.444L480,308.333L480.462,308.333L480.923,320.667L481.385,312.444L481.846,304.222L482.308,304.222L482.769,304.222L483.231,312.444L483.692,308.333L484.154,308.333L484.615,16.444L485.077,16.444L485.538,16.444L486,16.444L486.462,37L486.923,20.556L487.385,12.333L487.846,41.111L488.308,20.556L488.769,24.667L489.231,16.444L489.692,28.778L490.154,45.222L490.615,28.778L491.077,20.556L491.538,20.556L492,16.444L492.462,20.556L492.923,20.556L493.385,16.444L493.846,16.444L494.308,24.667L494.769,32.889L495.231,41.111L495.692,28.778L496.154,49.333L496.615,37L497.077,28.778L497.538,24.667L498,16.444L498.462,16.444L498.923,28.778L499.385,24.667L499.846,28.778L500.308,24.667L500.769,24.667L501.231,16.444L501.692,16.444L502.154,16.444L502.615,20.556L503.077,16.444L503.538,16.444L504,16.444L504.462,24.667L504.923,20.556L505.385,32.889L505.846,24.667L506.308,20.556L506.769,24.667L507.231,32.889L507.692,16.444L508.154,16.444L508.615,16.444L509.077,16.444L509.538,16.444L510,28.778L510.462,28.778L510.923,28.778L511.385,28.778L511.846,28.778L512.308,28.778L512.769,24.667L513.231,28.778L513.692,32.889L514.154,20.556L514.615,20.556L515.077,16.444L515.538,28.778L516,20.556L516.462,20.556L516.923,16.444L517.385,24.667L517.846,24.667L518.308,37L518.769,28.778L519.231,53.444L519.692,32.889L520.154,65.778L520.615,28.778L521.077,28.778L521.538,28.778L522,16.444L522.462,32.889L522.923,16.444L523.385,20.556L523.846,32.889L524.308,37L524.769,41.111L525.231,20.556L525.692,20.556L526.154,24.667L526.615,20.556L527.077,20.556L527.538,32.889L528,24.667L528.462,20.556L528.923,28.778L529.385,20.556L529.846,20.556L530.308,20.556L530.769,37L531.231,41.111L531.692,16.444L532.154,20.556L532.615,20.556L533.077,20.556L533.538,16.444L534,20.556L534.462,49.333L534.923,28.778L535.385,16.444L535.846,20.556L536.308,24.667L536.769,20.556L537.231,20.556L537.692,32.889L538.154,20.556L538.615,28.778L539.077,20.556L539.538,98.667L540,49.333L540.462,32.889L540.923,24.667L541.385,20.556L541.846,24.667L542.308,20.556L542.769,16.444L543.231,28.778L543.692,20.556L544.154,24.667L544.615,20.556L545.077,24.667L545.538,20.556L546,24.667L546.462,16.444L546.923,20.556L547.385,24.667L547.846,20.556L548.308,37L548.769,16.444L549.231,16.444L549.692,20.556L550.154,20.556L550.615,53.444L551.077,53.444L551.538,28.778L552,32.889L552.462,49.333L552.923,53.444L553.385,24.667L553.846,28.778L554.308,32.889L554.769,24.667L555.231,41.111L555.692,24.667L556.154,20.556L556.615,20.556L557.077,49.333L557.538,24.667L558,24.667L558.462,32.889L558.923,32.889L559.385,45.222L559.846,45.222L560.308,53.444L560.769,41.111L561.231,32.889L561.692,32.889L562.154,28.778L562.615,28.778L563.077,37L563.538,45.222L564,28.778L564.462,28.778L564.923,28.778L565.385,24.667L565.846,37L566.308,32.889L566.769,28.778L567.231,32.889L567.692,28.778L568.154,32.889L568.615,24.667L569.077,16.444L569.538,37L570,37L570.462,20.556L570.923,16.444L571.385,20.556L571.846,32.889L572.308,49.333L572.769,24.667L573.231,16.444L573.692,37L574.154,156.222L574.615,61.667L575.077,32.889L575.538,20.556L576,24.667L576.462,45.222L576.923,57.556L577.385,57.556L577.846,24.667L578.308,24.667L578.769,45.222L579.231,24.667L579.692,28.778L580.154,20.556L580.615,20.556L581.077,24.667L581.538,37L582,37L582.462,24.667L582.923,24.667" stroke="#003366" stroke-width="2"/></g><g class="mark-group role-title"><g transform="translate(300,-23)"><path class="background" aria-hidden="true" d="M0,0h0v0h0Z" pointer-events="none"/><g><g class="mark-text role-title-text" role="graphics-symbol" aria-roledescription="title" aria-label="Title text 'Coverage'" pointer-events="none"><text text-anchor="middle" transform="translate(0,10)" font-family="sans-serif" font-size="13px" font-weight="bold" fill="#000" opacity="1">Coverage</text></g></g><path class="foreground" aria-hidden="true" d="" pointer-events="none" display="none"/></g></g></g><path class="foreground" aria-hidden="true" d="" display="none"/></g></g></g></svg>